Coordinates
version=1
nRows=13
nColumns=36
inDegrees=yes

Units are S.I. units (second, meters, Newtons, ...)
If the header above contains a line with 'inDegrees', this indicates whether rotational values are in degrees (yes) or radians (no).

endheader
time	pelvis_tilt	pelvis_list	pelvis_rotation	pelvis_tx	pelvis_ty	pelvis_tz	hip_flexion_r	hip_adduction_r	hip_rotation_r	knee_angle_r	knee_angle_r_beta	ankle_angle_r	subtalar_angle_r	mtp_angle_r	hip_flexion_l	hip_adduction_l	hip_rotation_l	knee_angle_l	knee_angle_l_beta	ankle_angle_l	subtalar_angle_l	mtp_angle_l	lumbar_extension	lumbar_bending	lumbar_rotation	arm_flex_r	arm_add_r	arm_rot_r	elbow_flex_r	pro_sup_r	arm_flex_l	arm_add_l	arm_rot_l	elbow_flex_l	pro_sup_l
      0.00000000	      0.01851027	     -5.99469928	     -8.61135265	      0.97664561	      0.93110723	      0.12632557	     31.77358271	     -1.92306405	      2.13986003	     25.54656697	      0.44587171	     -3.71432596	    -14.90262781	     -6.07560966	      0.34021078	      0.46272714	      9.85850490	     12.19679140	      0.21287417	     19.01595749	     -3.39446775	     -6.07560966	     -0.55769044	      1.14235570	     -4.27411820	     29.67422937	      3.26419237	     59.48026488	    111.92218224	     75.70089807	     37.87138919	     -6.14375916	     67.39016357	    122.44961575	     71.58395246
      0.01666670	      0.58590047	     -6.65308684	     -6.12878401	      0.97817270	      0.92901273	      0.12453559	     28.42996049	     -2.88735535	     -1.48189546	     18.67067679	      0.32586478	      0.65014066	     -4.60047668	     -6.57454209	      0.44518753	     -0.05295492	     12.00314581	     14.47234881	      0.25259014	     17.93121287	     -5.36024590	     -6.57454209	     -1.73941775	      0.71513531	     -5.42633367	     31.10341085	     -0.09838721	     64.38788987	    118.66840003	     86.52099058	     39.72978984	     -7.33404579	     63.57375698	    125.54537246	     95.23983523
      0.03333330	      0.56659793	     -6.88407316	     -5.14971341	      0.97780917	      0.92791508	      0.12504523	     25.85382116	     -3.14157898	     -3.61547475	     13.01199231	      0.22710211	      2.54173515	     -0.93104943	     -6.73232157	      1.11473538	     -0.14247613	     13.49789054	     15.87551390	      0.27707999	     18.84293360	     -6.68577745	     -6.73232157	     -1.17910372	      0.96019363	     -7.19003986	     32.01557728	      1.00349490	     64.50653625	    119.01679221	     90.22112298	     39.64236170	     -8.61192094	     62.18585218	    126.17513236	     99.85505999
      0.05000000	      1.66360159	     -7.42869516	     -4.45794646	      0.97672805	      0.93046398	      0.12368468	     24.07385774	     -3.08290674	     -4.58990579	     12.32321220	      0.21508063	      5.06847581	      1.12581913	     -6.80433172	      0.44214586	     -0.35094982	     13.85493337	     16.88112043	      0.29463113	     20.75064090	     -6.21233682	     -6.80433172	     -2.16309823	      1.26960267	     -7.76533792	     32.68890768	      1.16277041	     64.42187746	    119.06688254	     89.07042602	     40.64644304	     -8.53639976	     62.06899991	    125.32979714	     98.24521744
      0.06666670	      2.54786600	     -7.96615759	     -4.21141759	      0.97537667	      0.93387682	      0.12284570	     23.27976851	     -2.78768015	     -4.93136467	     13.34844486	      0.23297431	      6.40426137	      2.41388973	     -6.88566812	     -0.04920874	     -0.48071113	     14.07135552	     17.85010657	      0.31154313	     22.41533565	     -6.40190618	     -6.88566812	     -3.24866210	      1.76043709	     -7.86687871	     33.14346700	      1.30523204	     64.46939430	    118.94219447	     87.52570594	     41.06711165	     -8.40395436	     61.67861615	    124.69247817	     96.22667982
      0.08333330	      3.46631047	     -8.38091182	     -3.89547780	      0.97440990	      0.93479379	      0.12189154	     22.84853216	     -2.71178677	     -5.16769161	     14.83978457	      0.25900310	      6.64040299	      2.85479114	     -6.92763549	     -0.59098793	     -0.52838662	     14.35958341	     18.60450537	      0.32470987	     23.34045838	     -6.41374732	     -6.92763549	     -4.50715793	      2.22948925	     -8.03270382	     33.78505881	      1.61257839	     64.57129985	    118.41392271	     86.75649310	     41.72753367	     -8.14768408	     61.41364895	    124.19189144	     94.92121668
      0.10000000	      4.22583325	     -8.60997061	     -3.60012929	      0.97321418	      0.93611719	      0.12167081	     22.68372237	     -2.73583127	     -5.09700033	     16.32376912	      0.28490352	      6.28107000	      2.63925601	     -6.98828436	     -1.05186471	     -0.47157713	     14.52854027	     19.15981371	      0.33440183	     23.91264289	     -6.32323641	     -6.98828436	     -5.61968857	      2.50609851	     -8.08971452	     34.23181852	      1.82716617	     64.65711099	    118.04421117	     85.61396430	     42.19756095	     -8.03517369	     60.98404900	    123.93027135	     93.12883791
      0.11666670	      4.71904825	     -8.82124443	     -3.42140581	      0.97261568	      0.93426688	      0.12141359	     22.79101552	     -2.72158650	     -4.78566719	     17.77814056	      0.31028709	      5.84016105	      1.92078471	     -7.12150100	     -1.25871635	     -0.49175903	     14.55404908	     19.63718207	      0.34273348	     24.21235285	     -6.12256713	     -7.12150100	     -6.36372643	      2.91120608	     -8.46423075	     34.87029058	      2.34758343	     64.96718688	    117.41180596	     89.47977995	     42.35278427	     -8.21784200	     60.10365123	    124.10033396	     92.66555020
      0.13333330	      5.12496800	     -8.93525837	     -3.22022005	      0.97617444	      0.93748181	      0.11900387	     22.83182305	     -2.82434332	     -4.39816216	     18.94511549	      0.33065464	      5.37000908	      1.22934054	     -7.13004065	     -1.63525540	     -0.44662097	     14.62759631	     19.79230182	      0.34544083	     24.24371723	     -5.95184483	     -7.13004065	     -6.91808617	      3.10966730	     -8.29496527	     34.87378445	      2.30284697	     65.00622034	    117.50809243	     89.51962126	     42.45182979	     -7.95624411	     59.93055248	    123.87183037	     92.54520607
      0.15000000	      5.39108968	     -8.98921747	     -3.12840456	      0.97567201	      0.93528898	      0.11891547	     23.00712551	     -2.92686155	     -3.90052956	     19.95293475	      0.34824441	      4.96850253	      0.49479899	     -7.16670815	     -1.78805755	     -0.38125926	     14.65273566	     20.00891882	      0.34922151	     24.48729532	     -5.62878129	     -7.16670815	     -7.28205565	      3.22071353	     -8.07649238	     34.88219150	      2.35438886	     65.11657425	    117.83119970	     88.26843085	     42.54272940	     -7.74902389	     59.83984610	    123.97837443	     90.89326100
      0.16666670	      5.64463615	     -8.98902236	     -2.99131895	      0.97518339	      0.93548976	      0.11858893	     23.00670663	     -3.10999872	     -3.53208207	     20.72510004	      0.36172123	      4.57651649	     -0.07481612	     -7.18315565	     -1.93428448	     -0.28817985	     14.70234119	     20.20070936	      0.35256889	     24.59080305	     -5.42776928	     -7.18315565	     -7.59913035	      3.23883488	     -7.93548249	     34.97164054	      2.37295541	     65.27106452	    118.02715510	     87.21112670	     42.52949435	     -7.59142402	     59.69486459	    124.12824921	     89.68994017
      0.18333330	      5.61505977	     -8.89877346	     -2.95740033	      0.97528150	      0.93486419	      0.11846219	     23.22469957	     -3.33952024	     -3.15283095	     21.33908853	      0.37243735	      4.45055135	     -0.45925615	     -7.20320733	     -1.84984766	     -0.15765242	     14.75955004	     20.25685358	      0.35354879	     24.77762379	     -5.09443702	     -7.20320733	     -7.47619417	      3.12055054	     -7.74233620	     34.91005691	      2.38863936	     65.23127787	    117.75840466	     86.28509617	     42.35805347	     -7.49124182	     59.64008226	    123.93071932	     88.56821326
      0.20000000	      5.88633819	     -8.84216476	     -2.76808857	      0.97036721	      0.93504057	      0.12057484	     23.16587114	     -3.50637866	     -2.87253338	     21.72932489	      0.37924826	      4.38538727	     -0.77105461	     -7.20682392	     -1.89162082	     -0.08425910	     14.84256921	     20.43632696	      0.35668119	     24.81874165	     -4.80242052	     -7.20682392	     -8.00453170	      2.97441381	     -7.59259802	     35.39093029	      2.54649435	     65.01120508	    117.65825323	     86.35513363	     42.74841029	     -7.62533113	     59.48134276	    124.18209367	     88.50770139
